<?xml version="1.0" encoding="utf-8"?>

<!-- License Agreement at http://iconmonstr.com/license/ -->

<!DOCTYPE svg PUBLIC "-//W3C//DTD SVG 1.1//EN" "http://www.w3.org/Graphics/SVG/1.1/DTD/svg11.dtd">
<svg version="1.1" xmlns="http://www.w3.org/2000/svg" xmlns:xlink="http://www.w3.org/1999/xlink" x="0px" y="0px"
   width="512px" height="512px" viewBox="0 0 512 512" style="enable-background:new 0 0 512 512;" xml:space="preserve">
<path
         id="path1937"
         d="M 345.40263,491.68441 C 339.87144,491.68448 335.23863,493.54387 331.46513,497.24691 C 327.69176,500.9501 325.80894,505.35635 325.80888,510.46566 C 325.80894,514.63758 327.41832,518.99697 330.65263,523.59066 C 327.85077,521.25613 325.05715,519.87191 319.74638,519.87191 C 309.35517,519.8719 301.90263,528.4017 301.90263,539.05941 C 301.9026,550.3605 310.15028,558.96567 321.15263,558.96566 C 332.16833,558.96564 340.4344,551.45174 344.49638,542.30941 C 344.30893,549.76255 343.17611,555.661 341.09013,559.99691 C 339.00425,564.33286 335.80894,567.9188 331.49638,570.77816 C 328.59019,572.70003 323.35583,574.38754 315.80888,575.84066 L 315.24638,578.24691 L 345.40263,578.24691 L 375.59013,578.24691 L 375.02763,575.84066 C 367.48068,574.38754 362.24631,572.70003 359.34013,570.77816 C 355.02757,567.9188 351.83227,564.33286 349.74638,559.99691 C 347.6604,555.661 346.52757,549.76255 346.34013,542.30941 C 350.40211,551.45174 358.66817,558.96564 369.68388,558.96566 C 380.68623,558.96567 388.9339,550.3605 388.93388,539.05941 C 388.93388,528.4017 381.48133,519.8719 371.09013,519.87191 C 365.77936,519.87191 362.98573,521.25613 360.18388,523.59066 C 363.41819,518.99697 365.02758,514.63758 365.02763,510.46566 C 365.02757,505.35635 363.14475,500.9501 359.37138,497.24691 C 355.59788,493.54387 350.93382,491.68448 345.40263,491.68441 z "
         style="font-size:144px;font-style:normal;font-weight:normal;fill:black;fill-opacity:1;stroke:none;stroke-width:1px;stroke-linecap:butt;stroke-linejoin:miter;stroke-opacity:1;font-family:Bitstream Vera Sans" />
</svg>
