<?xml version="1.0" encoding="utf-8"?>

<!-- License Agreement at http://iconmonstr.com/license/ -->

<!DOCTYPE svg PUBLIC "-//W3C//DTD SVG 1.1//EN" "http://www.w3.org/Graphics/SVG/1.1/DTD/svg11.dtd">
<svg version="1.1" xmlns="http://www.w3.org/2000/svg" xmlns:xlink="http://www.w3.org/1999/xlink" x="0px" y="0px"
   width="512px" height="512px" viewBox="0 0 512 512" style="enable-background:new 0 0 512 512;" xml:space="preserve">
<path
         id="path1935"
         d="M 345.55888,477.01996 C 344.10571,471.48871 342.0315,466.29731 339.33622,461.44574 C 336.64088,456.59419 331.42604,449.05904 323.69169,438.84027 C 318.0198,431.34031 314.52762,426.5825 313.21513,424.56683 C 311.05887,421.28563 309.50028,418.27392 308.53935,415.53167 C 307.5784,412.78955 307.09794,410.01221 307.09794,407.19964 C 307.09794,401.99659 308.83231,397.63722 312.30107,394.12152 C 315.7698,390.60598 320.05886,388.84817 325.16825,388.84808 C 330.32448,388.84817 334.80103,390.67629 338.59794,394.33246 C 341.45728,397.05128 343.77759,401.10597 345.55888,406.49652 C 347.10571,401.19972 349.28539,397.16847 352.09794,394.40277 C 355.98851,390.65285 360.48851,388.77785 365.59794,388.77777 C 370.66037,388.77785 374.94943,390.52395 378.46513,394.01605 C 381.98067,397.50831 383.73849,401.66847 383.73857,406.49652 C 383.73849,410.71533 382.70724,415.10986 380.64482,419.68011 C 378.58224,424.25048 374.59787,430.23875 368.69169,437.64496 C 361.00413,447.34811 355.40258,455.31685 351.887,461.55121 C 349.12133,466.47309 347.01196,471.62933 345.55888,477.01996 L 345.55888,477.01996 z "
         style="font-size:144px;font-style:normal;font-weight:normal;fill:#d40000;fill-opacity:1;stroke:none;stroke-width:1px;stroke-linecap:butt;stroke-linejoin:miter;stroke-opacity:1;font-family:Bitstream Vera Sans" />
</svg>
