<?xml version="1.0" encoding="utf-8"?>

<!-- License Agreement at http://iconmonstr.com/license/ -->

<!DOCTYPE svg PUBLIC "-//W3C//DTD SVG 1.1//EN" "http://www.w3.org/Graphics/SVG/1.1/DTD/svg11.dtd">
<svg version="1.1" xmlns="http://www.w3.org/2000/svg" xmlns:xlink="http://www.w3.org/1999/xlink" x="0px" y="0px"
   width="512px" height="512px" viewBox="0 0 512 512" style="enable-background:new 0 0 512 512;" xml:space="preserve">
<path
         id="path1939"
         d="M 233.67878,387.99261 C 232.46008,393.05519 230.58508,397.60206 228.05378,401.58636 C 225.52259,405.5708 221.01477,410.48486 214.52253,416.36761 C 208.03039,422.25048 203.91323,426.75828 202.17878,429.89886 C 200.44449,433.03952 199.58509,436.22702 199.58503,439.46136 C 199.58511,443.96139 201.08509,447.71138 204.08503,450.71136 C 207.08511,453.71138 210.74134,455.21137 215.05378,455.21136 C 222.77369,455.21135 228.74469,449.57456 232.67878,443.43011 C 232.37984,450.14857 231.27283,455.52721 229.33503,459.55511 C 227.24915,463.89104 224.05522,467.47909 219.74128,470.33636 C 216.83647,472.26031 211.60073,473.94574 204.05378,475.39886 L 203.49128,477.80511 L 233.64753,477.80511 L 263.83503,477.80511 L 263.27253,475.39886 C 255.72557,473.94573 250.48983,472.26031 247.58503,470.33636 C 243.27109,467.47907 240.07717,463.89105 237.99128,459.55511 C 236.05637,455.53321 234.94845,450.1658 234.64753,443.46136 C 238.58188,449.59723 244.59308,455.21135 252.30378,455.21136 C 256.61623,455.21137 260.27245,453.71138 263.27253,450.71136 C 266.27244,447.71138 267.77245,443.96139 267.77253,439.46136 C 267.77244,436.22702 266.91307,433.03952 265.17878,429.89886 C 263.44431,426.75828 259.32716,422.25048 252.83503,416.36761 C 246.3428,410.48486 241.83498,405.5708 239.30378,401.58636 C 236.77249,397.60206 234.89749,393.05519 233.67878,387.99261 z "
         style="font-size:144px;font-style:normal;font-weight:normal;fill:black;fill-opacity:1;stroke:none;stroke-width:1px;stroke-linecap:butt;stroke-linejoin:miter;stroke-opacity:1;font-family:Bitstream Vera Sans" />
</svg>
